<?xml version="1.0" encoding="UTF-8"?>
<svg id="uuid-1b0275d7-d9ab-4f31-a08b-13c0ead8fc5d" data-name="Layer 1" xmlns="http://www.w3.org/2000/svg" viewBox="0 0 1427.88 339.95">
  <defs>
    <style>
      .uuid-8dd5f487-d50c-42ca-b48d-02b043f5f694 {
        fill: #fff;
      }

      .uuid-f90dfa90-ea36-4ea3-87f1-0d6fa63e9cee {
        fill: #e92067;
      }
    </style>
  </defs>
  <g>
    <path class="uuid-8dd5f487-d50c-42ca-b48d-02b043f5f694" d="M5.5,5.5h1324.24c51.13,0,92.64,41.51,92.64,92.64v143.67c0,51.13-41.51,92.64-92.64,92.64H98.14c-51.13,0-92.64-41.51-92.64-92.64V5.5h0Z"/>
    <path class="uuid-f90dfa90-ea36-4ea3-87f1-0d6fa63e9cee" d="M1329.74,339.95H98.14C44.03,339.95,0,295.93,0,241.81V0h1329.74c54.12,0,98.14,44.03,98.14,98.14v143.67c0,54.12-44.03,98.14-98.14,98.14ZM11,11v230.81c0,48.05,39.09,87.14,87.14,87.14h1231.6c48.05,0,87.14-39.09,87.14-87.14V98.14c0-48.05-39.09-87.14-87.14-87.14H11Z"/>
  </g>
  <g>
    <polygon class="uuid-f90dfa90-ea36-4ea3-87f1-0d6fa63e9cee" points="885.92 197.54 783.68 197.54 783.68 184.76 892.31 184.76 892.31 149.61 738.95 149.61 738.95 205.27 885.92 205.27 885.92 197.54"/>
    <rect class="uuid-f90dfa90-ea36-4ea3-87f1-0d6fa63e9cee" x="897.09" y="149.61" width="44.73" height="55.66"/>
    <rect class="uuid-f90dfa90-ea36-4ea3-87f1-0d6fa63e9cee" x="1039.26" y="149.61" width="44.73" height="55.66"/>
    <rect class="uuid-f90dfa90-ea36-4ea3-87f1-0d6fa63e9cee" x="1149.49" y="149.61" width="44.73" height="55.66"/>
    <polygon class="uuid-f90dfa90-ea36-4ea3-87f1-0d6fa63e9cee" points="1321.53 203.93 1377.92 149.61 1318.81 149.61 1287.5 179.64 1256.51 149.61 1197.4 149.61 1253.63 203.93 1252.24 205.27 1322.92 205.27 1321.53 203.93"/>
    <path class="uuid-f90dfa90-ea36-4ea3-87f1-0d6fa63e9cee" d="M1103,224.69h27.48c11.98,0,19.01-3.2,19.01-14.38v-5.05h-65.5v5.05c0,11.18,7.03,14.38,19.01,14.38Z"/>
    <path class="uuid-f90dfa90-ea36-4ea3-87f1-0d6fa63e9cee" d="M1322.92,205.27l55,52.98h-59.11l-31.15-30.03-31.15,30.03h-59.11l54.85-52.98h-58.02v6.65c0,28.92-18.85,47.93-60.39,47.93h-34.19c-41.54,0-60.39-19.01-60.39-47.93v-6.65h-97.44v17.83h92.66v35.15h-137.39v-52.98h-11.17v24.22h-102.24v28.76h-44.73v-52.98h-224.64c-39.38,0-71.31,31.92-71.31,71.31v36.6h891.23c39.38,0,71.31-31.92,71.31-71.31v-36.6h-82.62Z"/>
    <polygon class="uuid-8dd5f487-d50c-42ca-b48d-02b043f5f694" points="783.68 258.24 783.68 229.49 885.92 229.49 885.92 205.27 738.95 205.27 738.95 258.24 783.68 258.24"/>
    <polygon class="uuid-8dd5f487-d50c-42ca-b48d-02b043f5f694" points="1034.48 258.24 1034.48 223.1 941.82 223.1 941.82 205.27 897.09 205.27 897.09 258.24 1034.48 258.24"/>
    <path class="uuid-8dd5f487-d50c-42ca-b48d-02b043f5f694" d="M1099.64,259.84h34.19c41.54,0,60.39-19.01,60.39-47.93v-6.65h-44.73v5.05c0,11.18-7.03,14.38-19.01,14.38h-27.48c-11.98,0-19.01-3.2-19.01-14.38v-5.05h-44.73v6.65c0,28.92,18.85,47.93,60.39,47.93Z"/>
    <polygon class="uuid-8dd5f487-d50c-42ca-b48d-02b043f5f694" points="1256.51 258.24 1287.66 228.21 1318.81 258.24 1377.92 258.24 1322.92 205.27 1252.24 205.27 1197.4 258.24 1256.51 258.24"/>
  </g>
  <g>
    <path class="uuid-f90dfa90-ea36-4ea3-87f1-0d6fa63e9cee" d="M32.81,139.38V30.74h153.36v35.14h-108.63v12.78h102.24v31.95h-102.24v28.76h-44.73Z"/>
    <path class="uuid-f90dfa90-ea36-4ea3-87f1-0d6fa63e9cee" d="M319.55,53.11v86.27h-74.13c-37.38,0-54.48-17.25-54.48-43.13v-43.13h41.53v43.13c0,5.75,3.67,12.78,14.54,12.78h30.99v-55.91h41.54Z"/>
    <path class="uuid-f90dfa90-ea36-4ea3-87f1-0d6fa63e9cee" d="M367.46,19.56v119.82h-41.54V19.56h41.54Z"/>
    <path class="uuid-f90dfa90-ea36-4ea3-87f1-0d6fa63e9cee" d="M415.38,19.56v119.82h-41.54V19.56h41.54Z"/>
  </g>
  <g>
    <path class="uuid-f90dfa90-ea36-4ea3-87f1-0d6fa63e9cee" d="M502.11,139.38v-73.49h-59.11V30.75h162.95v35.14h-59.11v73.49h-44.73Z"/>
    <path class="uuid-f90dfa90-ea36-4ea3-87f1-0d6fa63e9cee" d="M610.72,139.38V19.56h41.54v33.55h32.59c37.38,0,54.47,17.25,54.47,43.13v43.13h-41.54v-43.13c0-5.75-3.67-12.78-14.54-12.78h-30.99v55.91h-41.54Z"/>
    <path class="uuid-f90dfa90-ea36-4ea3-87f1-0d6fa63e9cee" d="M787.24,139.38h-41.54v-43.13c0-25.88,17.09-43.13,54.47-43.13h34.99v30.35h-33.39c-10.86,0-14.54,7.03-14.54,12.78v43.13Z"/>
    <path class="uuid-f90dfa90-ea36-4ea3-87f1-0d6fa63e9cee" d="M891.23,53.11h36.42c37.38,0,54.47,19.33,54.47,43.13,0,25.88-17.09,43.13-54.47,43.13h-36.42c-37.38,0-54.48-17.25-54.48-43.13,0-23.8,17.09-43.13,54.48-43.13ZM878.45,96.24c0,5.75,3.51,12.78,14.38,12.78h33.23c10.86,0,14.38-7.03,14.38-12.78s-3.51-12.78-14.38-12.78h-33.23c-10.86,0-14.38,7.03-14.38,12.78Z"/>
    <path class="uuid-f90dfa90-ea36-4ea3-87f1-0d6fa63e9cee" d="M986.11,96.24v-43.13l25.56-20.77h15.98v20.77h59.11v30.35h-59.11v12.78c0,5.75,3.67,12.78,14.54,12.78h44.57v30.35h-46.17c-37.38,0-54.47-17.25-54.47-43.13Z"/>
    <path class="uuid-f90dfa90-ea36-4ea3-87f1-0d6fa63e9cee" d="M1092.34,96.24v-43.13l25.56-20.77h15.98v20.77h59.11v30.35h-59.11v12.78c0,5.75,3.67,12.78,14.54,12.78h44.57v30.35h-46.17c-37.38,0-54.47-17.25-54.47-43.13Z"/>
    <path class="uuid-f90dfa90-ea36-4ea3-87f1-0d6fa63e9cee" d="M1240.9,19.56v119.82h-41.54V19.56h41.54Z"/>
    <path class="uuid-f90dfa90-ea36-4ea3-87f1-0d6fa63e9cee" d="M1288.98,102.63c1.92,3.51,5.91,6.39,12.78,6.39h70.13v30.35h-71.73c-37.38,0-54.47-17.25-54.47-43.13,0-23.8,17.09-43.13,54.47-43.13h34.83c17.89,0,38.5,2.88,38.5,24.28s-22.68,25.24-38.5,25.24h-46.01ZM1301.76,83.46c-6.87,0-10.86,2.88-12.78,6.39h42.01c3.67,0,4.95-1.76,4.95-3.19s-1.28-3.2-4.95-3.2h-29.24Z"/>
  </g>
  <g>
    <path class="uuid-8dd5f487-d50c-42ca-b48d-02b043f5f694" d="M740.53,268.97h35.58v7.32h-24.62v13.09h-10.96v-20.41ZM776.11,279.19v7.26h-19.63l-4.99-7.26h24.62Z"/>
    <path class="uuid-8dd5f487-d50c-42ca-b48d-02b043f5f694" d="M802.23,268.97l-9.59,13.09h15.03v-13.09h10.96v20.41h-42.04l9.23-13.09h-7.98v-7.32h24.38Z"/>
    <path class="uuid-8dd5f487-d50c-42ca-b48d-02b043f5f694" d="M817.87,289.38l14.91-20.41h12.97l-9.8,13.41h13.62v-6.09h10.96v13.09h-42.66Z"/>
    <path class="uuid-8dd5f487-d50c-42ca-b48d-02b043f5f694" d="M858.81,289.38l14.91-20.41h12.97l-9.8,13.41h13.62v-6.09h10.96v13.09h-42.66Z"/>
    <path class="uuid-8dd5f487-d50c-42ca-b48d-02b043f5f694" d="M914.36,276.29h-14.13v-7.32h39.89v7.32h-14.16v13.09h-11.59v-13.09Z"/>
    <path class="uuid-8dd5f487-d50c-42ca-b48d-02b043f5f694" d="M952.7,268.97v6.69h17.27v-6.69h11v20.41h-11v-5.8h-17.27v5.8h-11v-20.41h11Z"/>
    <path class="uuid-8dd5f487-d50c-42ca-b48d-02b043f5f694" d="M1023.84,291.97l-21.99-9.29,4.6-6.36h-11.32v13.06h-11v-20.41h39.29l-7.35,10.22,7.77,2.9v9.89Z"/>
    <path class="uuid-8dd5f487-d50c-42ca-b48d-02b043f5f694" d="M1065.65,268.97v20.41h-44.16l14.7-20.41h29.46ZM1054.65,282.38v-6.36h-11.26l-4.6,6.36h15.86Z"/>
    <path class="uuid-8dd5f487-d50c-42ca-b48d-02b043f5f694" d="M1081.34,276.29h-14.13v-7.32h39.89v7.32h-14.16v13.09h-11.59v-13.09Z"/>
    <path class="uuid-8dd5f487-d50c-42ca-b48d-02b043f5f694" d="M1114.96,276.29h-14.13v-7.32h39.89v7.32h-14.16v13.09h-11.59v-13.09Z"/>
    <path class="uuid-8dd5f487-d50c-42ca-b48d-02b043f5f694" d="M1132.71,289.38l14.91-20.41h12.97l-9.8,13.41h13.62v-6.09h10.96v13.09h-42.66Z"/>
    <path class="uuid-8dd5f487-d50c-42ca-b48d-02b043f5f694" d="M1177.6,289.38v-20.41h39.68l-23.21,13.12h19.93v7.29h-36.39ZM1188.56,282.83l11.14-6.54h-11.14v6.54Z"/>
    <path class="uuid-8dd5f487-d50c-42ca-b48d-02b043f5f694" d="M1215.88,268.97h35.58v7.32h-24.62v13.09h-10.96v-20.41ZM1251.46,279.19v7.26h-19.63l-4.99-7.26h24.62Z"/>
    <path class="uuid-8dd5f487-d50c-42ca-b48d-02b043f5f694" d="M1250.06,289.38l14.91-20.41h12.97l-9.8,13.41h13.62v-6.09h10.96v13.09h-42.66Z"/>
    <path class="uuid-8dd5f487-d50c-42ca-b48d-02b043f5f694" d="M1318.52,268.97l-9.59,13.09h15.03v-13.09h10.96v20.41h-42.04l9.23-13.09h-7.98v-7.32h24.38Z"/>
    <path class="uuid-8dd5f487-d50c-42ca-b48d-02b043f5f694" d="M1352.41,276.41l-15.27-.12v-7.32h19.69l3.44,4.81,17-7.41v9.86l-15.27,5.71,15.27.12v7.32h-19.69l-3.44-4.81-17,7.41v-9.86l15.27-5.71Z"/>
  </g>
  <rect class="uuid-8dd5f487-d50c-42ca-b48d-02b043f5f694" x="688.03" y="217.78" width="40.39" height="40.39"/>
  <rect class="uuid-8dd5f487-d50c-42ca-b48d-02b043f5f694" x="647.64" y="258.31" width="40.39" height="40.39"/>
  <rect class="uuid-8dd5f487-d50c-42ca-b48d-02b043f5f694" x="607.24" y="217.78" width="40.39" height="40.39"/>
  <rect class="uuid-8dd5f487-d50c-42ca-b48d-02b043f5f694" x="566.85" y="258.31" width="40.39" height="40.39"/>
</svg>